<svg width="122" height="136" viewBox="0 0 122 136" fill="none" xmlns="http://www.w3.org/2000/svg">
<g filter="url(#filter0_bdd_401_417)">
<path fill-rule="evenodd" clip-rule="evenodd" d="M34.8438 46V34H46.8438V46H34.8438ZM24.8438 32C24.8438 27.5817 28.4255 24 32.8438 24H48.8438C53.262 24 56.8438 27.5817 56.8438 32V48C56.8438 52.4183 53.262 56 48.8438 56H32.8438C28.4255 56 24.8438 52.4183 24.8438 48V32ZM34.8438 86V74H46.8438V86H34.8438ZM24.8438 72C24.8438 67.5817 28.4255 64 32.8438 64H48.8438C53.262 64 56.8438 67.5817 56.8438 72V88C56.8438 92.4183 53.262 96 48.8438 96H32.8438C28.4255 96 24.8438 92.4183 24.8438 88V72ZM75.1562 34V46H87.1562V34H75.1562ZM73.1562 24C68.738 24 65.1562 27.5817 65.1562 32V48C65.1562 52.4183 68.738 56 73.1562 56H89.1562C93.5745 56 97.1562 52.4183 97.1562 48V32C97.1562 27.5817 93.5745 24 89.1562 24H73.1562ZM81.1562 66C78.9471 66 77.1562 67.7909 77.1562 70V75.9509H71.1562C68.9471 75.9509 67.1562 77.7417 67.1562 79.9509C67.1562 82.16 68.9471 83.9509 71.1562 83.9509H77.1562V90C77.1562 92.2091 78.9471 94 81.1562 94C83.3654 94 85.1562 92.2091 85.1562 90V83.9509H91.1562C93.3654 83.9509 95.1562 82.16 95.1562 79.9509C95.1562 77.7417 93.3654 75.9509 91.1562 75.9509H85.1562V70C85.1562 67.7909 83.3654 66 81.1562 66Z" fill="url(#paint0_radial_401_417)"/>
</g>
<defs>
<filter id="filter0_bdd_401_417" x="0.84375" y="16" width="120.312" height="120" filterUnits="userSpaceOnUse" color-interpolation-filters="sRGB">
<feFlood flood-opacity="0" result="BackgroundImageFix"/>
<feGaussianBlur in="BackgroundImage" stdDeviation="4"/>
<feComposite in2="SourceAlpha" operator="in" result="effect1_backgroundBlur_401_417"/>
<feColorMatrix in="SourceAlpha" type="matrix" values="0 0 0 0 0 0 0 0 0 0 0 0 0 0 0 0 0 0 127 0" result="hardAlpha"/>
<feOffset dy="16"/>
<feGaussianBlur stdDeviation="12"/>
<feComposite in2="hardAlpha" operator="out"/>
<feColorMatrix type="matrix" values="0 0 0 0 0.123854 0 0 0 0 0.24795 0 0 0 0 0.3625 0 0 0 0.25 0"/>
<feBlend mode="normal" in2="effect1_backgroundBlur_401_417" result="effect2_dropShadow_401_417"/>
<feColorMatrix in="SourceAlpha" type="matrix" values="0 0 0 0 0 0 0 0 0 0 0 0 0 0 0 0 0 0 127 0" result="hardAlpha"/>
<feOffset dy="16"/>
<feGaussianBlur stdDeviation="4"/>
<feComposite in2="hardAlpha" operator="out"/>
<feColorMatrix type="matrix" values="0 0 0 0 0.101961 0 0 0 0 0.184314 0 0 0 0 0.262745 0 0 0 0.03 0"/>
<feBlend mode="normal" in2="effect2_dropShadow_401_417" result="effect3_dropShadow_401_417"/>
<feBlend mode="normal" in="SourceGraphic" in2="effect3_dropShadow_401_417" result="shape"/>
</filter>
<radialGradient id="paint0_radial_401_417" cx="0" cy="0" r="1" gradientUnits="userSpaceOnUse" gradientTransform="translate(61 96) rotate(-90) scale(72 156.502)">
<stop stop-color="#5200FF"/>
<stop offset="1" stop-color="#180660"/>
</radialGradient>
</defs>
</svg>
