<svg width="131" height="141" viewBox="0 0 131 141" fill="none" xmlns="http://www.w3.org/2000/svg">
<g filter="url(#filter0_bdd_401_427)">
<path fill-rule="evenodd" clip-rule="evenodd" d="M35.4771 40.25C36.726 39.5284 38.658 38.7357 41.3189 37.9965C47.286 36.339 55.8146 35.25 65.4366 35.25C75.0585 35.25 83.5871 36.339 89.5542 37.9965C92.2151 38.7357 94.1471 39.5284 95.396 40.25C94.1471 40.9716 92.2151 41.7643 89.5542 42.5035C83.5871 44.161 75.0585 45.25 65.4366 45.25C55.8146 45.25 47.286 44.161 41.3189 42.5035C38.658 41.7643 36.726 40.9716 35.4771 40.25ZM96.6461 39.3459C96.6672 39.3125 96.6817 39.2962 96.6837 39.2964C96.6857 39.2966 96.6751 39.3133 96.6461 39.3459ZM38.6425 28.3613C45.7049 26.3996 55.1762 25.25 65.4366 25.25C75.6969 25.25 85.1682 26.3996 92.2306 28.3613C95.7267 29.3325 98.9183 30.5798 101.352 32.1782C103.583 33.643 106.437 36.2652 106.437 40.25C106.437 40.6988 106.4 41.1303 106.333 41.5448C106.401 41.8734 106.437 42.2138 106.437 42.5625V68C106.437 70.7614 104.198 73 101.437 73C98.6751 73 96.4366 70.7614 96.4366 68V50.765C95.1105 51.2752 93.6973 51.7312 92.2306 52.1387C85.1682 54.1004 75.6969 55.25 65.4366 55.25C55.1762 55.25 45.7049 54.1004 38.6425 52.1387C37.1758 51.7312 35.7626 51.2752 34.4366 50.765V58.4645C34.6651 58.9656 35.2652 59.7347 36.6526 60.6457C38.2583 61.7 40.2226 62.475 41.6878 62.9222C48.8394 65.1048 56.9883 65.5204 65.4366 65.5204C68.198 65.5204 70.4366 67.7589 70.4366 70.5204C70.4366 73.2818 68.198 75.5204 65.4366 75.5204C56.8532 75.5203 47.4341 75.1313 38.7688 72.4867C37.5787 72.1235 36.0483 71.5778 34.4366 70.8208V78.7371C34.4524 78.754 34.4697 78.7719 34.4884 78.7909C34.816 79.1223 35.3824 79.549 36.2224 80.0141C37.9085 80.9479 39.9965 81.6553 41.4735 82.0351C48.7293 83.9008 56.9734 84.25 65.4366 84.25C68.198 84.25 70.4366 86.4885 70.4366 89.25C70.4366 92.0114 68.198 94.25 65.4366 94.25C56.8682 94.25 47.5443 93.9213 38.9832 91.72C37.0071 91.2119 34.0493 90.2417 31.3779 88.7623C30.0391 88.0209 28.5987 87.0572 27.3768 85.8211C26.1585 84.5888 24.9313 82.852 24.5181 80.5918C24.4032 79.9637 24.4112 79.3415 24.5248 78.75H24.4366V59.2712C24.4352 59.2044 24.4352 59.1377 24.4366 59.0713V40.25V39.0625H24.5235C25.0175 35.7376 27.5201 33.4923 29.5209 32.1782C31.9548 30.5798 35.1464 29.3325 38.6425 28.3613ZM85.3116 76.0203C85.3116 73.8112 87.1024 72.0203 89.3116 72.0203C91.5207 72.0203 93.3116 73.8112 93.3116 76.0203V81.9712H99.3116C101.521 81.9712 103.312 83.7621 103.312 85.9712C103.312 88.1803 101.521 89.9712 99.3116 89.9712H93.3116V96.0203C93.3116 98.2295 91.5207 100.02 89.3116 100.02C87.1024 100.02 85.3116 98.2295 85.3116 96.0203V89.9712H79.3116C77.1024 89.9712 75.3116 88.1803 75.3116 85.9712C75.3116 83.7621 77.1024 81.9712 79.3116 81.9712H85.3116V76.0203Z" fill="url(#paint0_radial_401_427)"/>
</g>
<defs>
<filter id="filter0_bdd_401_427" x="0.435547" y="17.25" width="130.001" height="122.77" filterUnits="userSpaceOnUse" color-interpolation-filters="sRGB">
<feFlood flood-opacity="0" result="BackgroundImageFix"/>
<feGaussianBlur in="BackgroundImage" stdDeviation="4"/>
<feComposite in2="SourceAlpha" operator="in" result="effect1_backgroundBlur_401_427"/>
<feColorMatrix in="SourceAlpha" type="matrix" values="0 0 0 0 0 0 0 0 0 0 0 0 0 0 0 0 0 0 127 0" result="hardAlpha"/>
<feOffset dy="16"/>
<feGaussianBlur stdDeviation="12"/>
<feComposite in2="hardAlpha" operator="out"/>
<feColorMatrix type="matrix" values="0 0 0 0 0.123854 0 0 0 0 0.24795 0 0 0 0 0.3625 0 0 0 0.25 0"/>
<feBlend mode="normal" in2="effect1_backgroundBlur_401_427" result="effect2_dropShadow_401_427"/>
<feColorMatrix in="SourceAlpha" type="matrix" values="0 0 0 0 0 0 0 0 0 0 0 0 0 0 0 0 0 0 127 0" result="hardAlpha"/>
<feOffset dy="16"/>
<feGaussianBlur stdDeviation="4"/>
<feComposite in2="hardAlpha" operator="out"/>
<feColorMatrix type="matrix" values="0 0 0 0 0.101961 0 0 0 0 0.184314 0 0 0 0 0.262745 0 0 0 0.03 0"/>
<feBlend mode="normal" in2="effect2_dropShadow_401_427" result="effect3_dropShadow_401_427"/>
<feBlend mode="normal" in="SourceGraphic" in2="effect3_dropShadow_401_427" result="shape"/>
</filter>
<radialGradient id="paint0_radial_401_427" cx="0" cy="0" r="1" gradientUnits="userSpaceOnUse" gradientTransform="translate(65.436 100.02) rotate(-90) scale(74.7703 177.471)">
<stop stop-color="#5200FF"/>
<stop offset="1" stop-color="#180660"/>
</radialGradient>
</defs>
</svg>
